# AST/ASF file generated using VICON BodyLanguage
# -----------------------------------------------
:version 1.10
:name VICON
:units
  mass 1.0
  length 0.45
  angle deg
:documentation
   .ast/.asf automatically generated from VICON data using
   VICON BodyBuilder and BodyLanguage model FoxedUp or BRILLIANT.MOD
:root
   order TX TY TZ RX RY RZ
   axis XYZ
   position 0 0 0  
   orientation 0 0 0 
:bonedata
  begin
     id 1 
     name lhipjoint
     direction 0.645422 -0.672597 0.361999 
     length 2.39934 
     axis 0 0 0  XYZ
  end
  begin
     id 2 
     name lfemur
     direction 0.34202 -0.939693 0  
     length 6.58112  
     axis 0 0 20  XYZ
    dof rx ry rz
    limits (-160.0 20.0)
           (-70.0 70.0)
           (-60.0 70.0)
  end
  begin
     id 3 
     name ltibia
     direction 0.34202 -0.939693 0   
     length 7.02673   
     axis 0 0 20   XYZ
    dof rx
    limits (-10.0 170.0)
  end
  begin
     id 4 
     name lfoot
     direction 0.0835106 -0.229444 0.969733   
     length 2.08772   
     axis -90 7.62852e-016 20   XYZ
    dof rx rz
    limits (-45.0 90.0)
           (-70.0 20.0)
  end
  begin
     id 5 
     name ltoes
     direction 1.5358e-011 -4.21925e-011 1   
     length 1.04844   
     axis -90 7.62852e-016 20   XYZ
    dof rx
    limits (-90.0 20.0)
  end
  begin
     id 6 
     name rhipjoint
     direction -0.644959 -0.672941 0.362185   
     length 2.39812  
     axis 0 0 0  XYZ 
  end
  begin
     id 7 
     name rfemur
     direction -0.34202 -0.939693 0   
     length 6.67015   
     axis 0 0 -20   XYZ
    dof rx ry rz
    limits (-160.0 20.0)
           (-70.0 70.0)
           (-70.0 60.0)
  end
  begin
     id 8 
     name rtibia
     direction -0.34202 -0.939693 0   
     length 7.35735   
     axis 0 0 -20   XYZ
    dof rx
    limits (-10.0 170.0)
 end
 begin
     id 9 
     name rfoot
     direction -0.0670769 -0.184292 0.98058   
     length 2.25469  
     axis -90 -7.62852e-016 -20   XYZ
    dof rx rz
    limits (-45.0 90.0)
           (-20.0 70.0)
  end
  begin
     id 10 
     name rtoes
     direction -1.53575e-011 -4.21908e-011 1   
     length 1.13399   
     axis -90 -7.62852e-016 -20   XYZ
    dof rx
    limits (-90.0 20.0)
  end
  begin
     id 11 
     name lowerback
     direction -0.0188328 0.993434 -0.112847   
     length 2.27656   
     axis 0 0 0   XYZ
    dof rx ry rz
    limits (-20.0 45.0)
           (-30.0 30.0)
           (-30.0 30.0)
  end
  begin
     id 12 
     name upperback
     direction 0.00983139 0.998968 -0.04435   
     length 2.28631   
     axis 0 0 0   XYZ
    dof rx ry rz
    limits (-20.0 45.0)
           (-30.0 30.0)
           (-30.0 30.0)
  end
  begin
     id 13 
     name thorax
     direction 0.0177718 0.999807 0.00833073   
     length 2.30999   
     axis 0 0 0   XYZ
    dof rx ry rz
    limits (-20.0 45.0)
           (-30.0 30.0)
           (-30.0 30.0)
  end
  begin
     id 14 
     name lowerneck
     direction -0.0835025 0.993181 0.0813558   
     length 1.39447   
     axis 0 0 0   XYZ
    dof rx ry rz
    limits (-20.0 45.0)
           (-30.0 30.0)
           (-30.0 30.0)
  end
  begin
     id 15 
     name upperneck
     direction 0.210059 0.976535 0.0474817   
     length 1.39882   
     axis 0 0 0   XYZ
    dof rx ry rz
    limits (-20.0 45.0)
           (-30.0 30.0)
           (-30.0 30.0)
  end
  begin
     id 16
     name head
     direction 0.0780891 0.996944 -0.00207154  
     length 1.41828  
     axis 0 0 0   XYZ
    dof rx ry rz
    limits (-20.0 45.0)
           (-30.0 30.0)
           (-30.0 30.0)
  end
  begin
     id 17 
     name lclavicle
     direction 0.982414 0.166355 -0.0847829  
     length 3.57922  
     axis 0 0 0   XYZ
    dof ry rz
    limits (-20.0 10.0)
           (0.0 20.0)
  end
  begin
     id 18 
     name lhumerus
     direction 1 -4.48975e-011 5.47647e-028   
     length 4.76405   
     axis -180 -30 -90   XYZ
    dof rx ry rz
    limits (-60.0 90.0)
           (-90.0 90.0)
           (-90.0 90.0)
  end
  begin
     id 19
     name lradius
     direction 1 -4.48949e-011 -8.32142e-027   
     length 3.13759   
     axis -180 -30 -90   XYZ
    dof rx
    limits (-10.0 170.0)
  end
  begin
     id 20
     name lwrist
     direction 1 -4.48978e-011 -1.32705e-026   
     length 1.56879   
     axis 9.60836e-015 90 90   XYZ
    dof ry
    limits (-180.0 0.0)
 end
  begin
     id 21 
     name lhand
     direction 1 -4.48975e-011 -2.65409e-026   
     length 0.732262   
     axis 1.69354e-014 90 90   XYZ
    dof rx rz
    limits (-90.0 90.0)
           (-45.0 45.0)
  end
  begin
     id 22 
     name lfingers
     direction 1 -4.48923e-011 -5.30819e-026   
     length 0.590368   
     axis 3.38708e-014 90 90   XYZ
    dof rx
    limits (0.0 90.0)
  end
  begin
     id 23
     name lthumb
     direction 0.707107 -6.34914e-011 0.707107   
     length 0.847654   
     axis -90 45 2.85299e-015   XYZ
    dof rx rz
    limits (-45.0 45.0)
           (-45.0 45.0)
  end
  begin
     id 24 
     name rclavicle
     direction -0.963658 0.245183 -0.106063   
     length 3.43472  
     axis 0 0 0   XYZ 
    dof ry rz
    limits (-10.0 20.0)
           (-20.0 0.0)
  end
  begin
     id 25 
     name rhumerus
     direction -1 -4.48963e-011 -1.64784e-027  
     length 5.10161   
     axis -180 30 90   XYZ
    dof rx ry rz
    limits (-90.0 60.0)
           (-90.0 90.0)
           (-90.0 90.0)
  end
  begin
     id 26 
     name rradius
     direction -1 -4.48969e-011 -2.87943e-027   
     length 3.23267   
     axis -180 30 90   XYZ
    dof rx
    limits (-10.0 170.0)
  end
  begin
     id 27 
     name rwrist
     direction -1 -4.48982e-011 -1.32705e-026   
     length 1.61633   
     axis 9.60836e-015 -90 -90   XYZ
    dof ry
    limits (-180.0 0.0)
  end
  begin
     id 28
     name rhand
     direction -1 -4.48963e-011 -2.65409e-026   
     length 0.702   
     axis 1.69354e-014 -90 -90   XYZ
    dof rx rz
    limits (-90.0 90.0)
           (-45.0 45.0)
  end
  begin
     id 29
     name rfingers
     direction -1 -4.48934e-011 -5.30819e-026   
     length 0.565971   
     axis 3.38708e-014 -90 -90   XYZ
    dof rx
    limits (0.0 90.0)
  end
  begin
     id 30
     name rthumb
     direction -0.707107 -6.34908e-011 0.707107   
     length 0.812624   
     axis -90 -45 -2.85299e-015   XYZ
    dof rx rz
    limits (-45.0 45.0)
           (-45.0 45.0)
  end
:hierarchy
  begin
    root lhipjoint rhipjoint lowerback
    lhipjoint lfemur
    lfemur ltibia
    ltibia lfoot
    lfoot ltoes
    rhipjoint rfemur
    rfemur rtibia
    rtibia rfoot
    rfoot rtoes
    lowerback upperback
    upperback thorax
    thorax lowerneck lclavicle rclavicle
    lowerneck upperneck
    upperneck head
    lclavicle lhumerus
    lhumerus lradius
    lradius lwrist
    lwrist lhand lthumb
    lhand lfingers
    rclavicle rhumerus
    rhumerus rradius
    rradius rwrist
    rwrist rhand rthumb
    rhand rfingers
  end

#!OML:ASF E:\basketball\basketball\Project 1\Capture day 1\Session 1\Subject.ASF
:FULLY-SPECIFIED
:DEGREES
66
root -34.8631 15.1775 -16.2654 8.47746 61.4888 -1.78463
lowerback 3.87626 0.152978 5.85547
upperback 4.93239 0.373372 0.577125
thorax 2.96159 0.402708 -2.68552
lowerneck -20.156 -1.46468 -25.8467
upperneck 6.66919 1.96905 26.915
head 4.87941 2.2669 14.1088
rclavicle 1.17283e-014 -1.98785e-015
rhumerus -33.5084 -5.22289 -91.066
rradius 92.6977
rwrist -74.7153
rhand -21.7467 50.4802
rfingers 7.12502
rthumb 4.65335 20.5513
lclavicle 1.17283e-014 -1.98785e-015
lhumerus -28.8629 -12.2737 101.361
lradius 76.7326
lwrist 28.4
lhand -14.395 21.9616
lfingers 7.12502
lthumb 11.7482 51.6121
rfemur -13.0961 -7.39187 15.6079
rtibia 43.0774
rfoot -33.5728 -10.6174
rtoes -8.82933
lfemur -20.8661 5.62778 -25.6537
ltibia 56.2488
lfoot -17.2023 -3.10048
ltoes 4.55192
67
root -34.7641 15.1673 -16.2831 8.57637 61.0243 -1.98108
lowerback 4.22978 0.213155 6.04325
upperback 5.0709 0.480219 0.749159
thorax 2.91933 0.463263 -2.61528
lowerneck -20.0949 -1.29943 -25.4486
upperneck 6.33743 2.17098 26.4765
head 4.71727 2.34996 13.8282
rclavicle 1.19271e-015 1.27222e-014
rhumerus -32.461 -5.74646 -90.5121
rradius 94.0746
rwrist -69.4939
rhand -25.2986 47.6296
rfingers 7.12502
rthumb 1.22318 17.6534
lclavicle 1.19271e-015 1.27222e-014
lhumerus -30.2169 -10.8575 101.573
lradius 75.0846
lwrist 27.5667
lhand -14.6196 21.7672
lfingers 7.12502
lthumb 11.5317 51.43
rfemur -13.1563 -7.93075 15.3084
rtibia 43.2262
rfoot -34.2546 -9.95759
rtoes -10.0577
lfemur -21.9924 7.14942 -25.4851
ltibia 58.0522
lfoot -15.7242 -3.56741
ltoes -1.38861
68
root -34.6661 15.1504 -16.3047 8.67967 60.679 -2.04203
lowerback 4.72311 0.213751 6.19247
upperback 5.28805 0.519308 0.915108
thorax 2.87462 0.491878 -2.52978
lowerneck -20.0805 -1.14181 -25.0391
upperneck 5.88007 2.39342 25.992
head 4.52373 2.44502 13.5274
rclavicle 7.71285e-014 -7.15625e-015
rhumerus -31.2582 -6.43235 -89.9177
rradius 95.6172
rwrist -64.4724
rhand -28.0822 44.1031
rfingers 7.12502
rthumb -1.46529 14.1284
lclavicle 7.71285e-014 -7.15625e-015
lhumerus -31.1287 -9.94281 101.423
lradius 73.6137
lwrist 27.4229
lhand -14.6921 21.9726
lfingers 7.12502
lthumb 11.4617 51.6393
rfemur -12.9826 -8.78945 14.9741
rtibia 43.2689
rfoot -35.4159 -9.21473
rtoes -10.8616
lfemur -22.9015 7.56405 -25.5185
ltibia 59.791
lfoot -15.3103 -3.60345
ltoes 1.54683
69
root -34.5907 15.0915 -16.3124 8.16574 59.444 -2.47458
lowerback 5.65595 0.415441 5.81839
upperback 5.48649 0.842801 1.41027
thorax 2.57203 0.632273 -1.82566
lowerneck -19.5225 -0.722377 -25.0331
upperneck 5.24808 2.98961 25.3625
head 4.07777 2.67501 13.2334
rclavicle -1.47101e-014 -2.8625e-014
rhumerus -30.2922 -6.23948 -89.1976
rradius 97.3448
rwrist -58.4173
rhand -31.8106 40.0636
rfingers 7.12502
rthumb -5.06582 10.1441
lclavicle -1.47101e-014 -2.8625e-014
lhumerus -31.8858 -8.60847 101.478
lradius 71.7192
lwrist 27.5892
lhand -6.10204 23.958
lfingers 7.12502
lthumb 19.7343 52.9762
rfemur -12.8806 -8.44675 14.7806
rtibia 43.3957
rfoot -36.0227 -9.15258
rtoes -12.5529
lfemur -23.672 8.24932 -25.4334
ltibia 61.7122
lfoot -16.1818 -3.93978
ltoes -5.53724
70
root -34.4949 15.0926 -16.3015 7.30558 57.4681 -2.99408
lowerback 7.15981 0.581746 5.32764
upperback 5.36879 1.15763 1.80373
thorax 1.6144 0.74502 -1.18548
lowerneck -18.1113 0.239394 -25.0713
upperneck 4.6855 4.11871 24.8569
head 3.36675 3.1298 12.9825
rclavicle -4.77083e-015 2.3059e-014
rhumerus -29.9408 -5.35367 -88.8931
rradius 98.989
rwrist -54.1036
rhand -33.6247 36.8043
rfingers 7.12502
rthumb -6.81725 6.93406
lclavicle -4.77083e-015 2.3059e-014
lhumerus -33.2775 -6.36204 101.205
lradius 69.373
lwrist 27.6484
lhand -5.86452 24.1026
lfingers 7.12502
lthumb 19.9626 53.0973
rfemur -12.453 -7.44362 14.5062
rtibia 43.2574
rfoot -35.9014 -9.14149
rtoes -15.2081
lfemur -23.6852 7.81626 -25.5187
ltibia 63.2452
lfoot -17.2137 -1.03018
ltoes -17.5007
71
root -34.3865 15.0822 -16.3039 6.79916 56.2329 -3.33364
lowerback 8.36114 0.757691 4.79008
upperback 5.44938 1.44954 2.37895
thorax 1.02036 0.861341 -0.332713
lowerneck -17.8149 0.718455 -25.1576
upperneck 4.47182 4.80077 24.2241
head 3.07507 3.41493 12.7349
rclavicle -6.99722e-014 2.46493e-014
rhumerus -28.6617 -4.99634 -88.5005
rradius 100.933
rwrist -48.4665
rhand -36.6072 31.5364
rfingers 7.12502
rthumb -9.69569 1.77956
lclavicle -6.99722e-014 2.46493e-014
lhumerus -34.2261 -4.8086 101.41
lradius 67.1362
lwrist 28.3679
lhand -5.84416 24.358
lfingers 7.12502
lthumb 19.9822 53.3505
rfemur -12.0153 -7.05902 14.1206
rtibia 43.1101
rfoot -35.9333 -8.60508
rtoes -16.4248
lfemur -24.2316 10.1416 -25.1252
ltibia 64.825
lfoot -16.8852 -0.488464
ltoes -23.8039
72
root -34.2718 15.0711 -16.3122 6.65379 55.503 -3.49877
lowerback 9.01232 1.00933 5.05636
upperback 5.90057 1.83804 2.26793
thorax 1.16362 1.07845 -0.629799
lowerneck -18.1624 0.797246 -24.2642
upperneck 3.95726 4.89798 23.6464
head 2.99674 3.47755 12.3396
rclavicle -4.81059e-014 2.06736e-014
rhumerus -26.4528 -5.96444 -89.0824
rradius 103.399
rwrist -43.2826
rhand -39.3924 24.9366
rfingers 7.12502
rthumb -12.382 -4.6767
lclavicle -4.81059e-014 2.06736e-014
lhumerus -34.6301 -4.85944 100.813
lradius 64.76
lwrist 29.2261
lhand -5.77952 25.0128
lfingers 7.12502
lthumb 20.0443 53.9989
rfemur -11.6365 -6.6328 13.7299
rtibia 42.8525
rfoot -35.8472 -8.22282
rtoes -16.0019
lfemur -25.0686 11.7135 -24.8498
ltibia 66.3113
lfoot -16.3684 0.0628158
ltoes -24.88
